<?xml version="1.0" encoding="UTF-8"?>
<svg xmlns="http://www.w3.org/2000/svg" xmlns:xlink="http://www.w3.org/1999/xlink" width="30pt" height="30.000001pt" viewBox="0 0 30 30.000001" version="1.2">
<defs>
<clipPath id="clip1">
  <path d="M 1.136719 18 L 19 18 L 19 29.03125 L 1.136719 29.03125 Z M 1.136719 18 "/>
</clipPath>
<clipPath id="clip2">
  <path d="M 1.136719 18 L 16 18 L 16 29.03125 L 1.136719 29.03125 Z M 1.136719 18 "/>
</clipPath>
<clipPath id="clip3">
  <path d="M 14 0 L 29.375 0 L 29.375 13 L 14 13 Z M 14 0 "/>
</clipPath>
<clipPath id="clip4">
  <path d="M 24 0 L 29.375 0 L 29.375 6 L 24 6 Z M 24 0 "/>
</clipPath>
</defs>
<g id="surface1">
<path style=" stroke:none;fill-rule:nonzero;fill:rgb(100%,100%,100%);fill-opacity:1;" d="M 19.664062 10.125 C 19.621094 10.0625 19.582031 9.996094 19.542969 9.929688 C 18.90625 8.882812 18.230469 7.832031 17.632812 6.742188 C 11.601562 9.886719 7.230469 16.167969 7.027344 23.863281 C 8.746094 23.863281 10.464844 23.867188 12.183594 23.871094 C 11.929688 18.140625 14.96875 12.941406 19.664062 10.125 "/>
<path style=" stroke:none;fill-rule:nonzero;fill:rgb(72.938538%,85.488892%,90.19928%);fill-opacity:1;" d="M 19.160156 9.308594 C 18.8125 8.742188 18.457031 8.167969 18.117188 7.589844 C 12.71875 10.382812 8.851562 16.003906 8.742188 22.800781 C 9.625 22.800781 10.503906 22.800781 11.382812 22.800781 C 11.253906 17.011719 14.441406 11.933594 19.160156 9.308594 "/>
<g clip-path="url(#clip1)" clip-rule="nonzero">
<path style=" stroke:none;fill-rule:nonzero;fill:rgb(100%,100%,100%);fill-opacity:1;" d="M 18.300781 21.917969 C 18.296875 20.769531 17.367188 19.835938 16.222656 19.835938 C 15.976562 19.835938 15.742188 19.882812 15.523438 19.960938 C 15.289062 19.066406 14.480469 18.40625 13.515625 18.40625 C 12.578125 18.410156 11.789062 19.035156 11.53125 19.890625 C 11.070312 19.457031 10.449219 19.191406 9.765625 19.191406 C 8.59375 19.191406 7.605469 19.980469 7.289062 21.058594 C 6.816406 20.441406 6.074219 20.042969 5.238281 20.042969 C 3.808594 20.042969 2.65625 21.207031 2.65625 22.644531 C 2.65625 23.136719 2.796875 23.59375 3.03125 23.984375 C 1.972656 24.078125 1.140625 24.972656 1.140625 26.0625 C 1.144531 27.214844 2.074219 28.144531 3.21875 28.144531 C 3.675781 28.144531 4.097656 27.992188 4.441406 27.742188 C 4.75 28.5 5.492188 29.035156 6.359375 29.035156 C 7.070312 29.03125 7.695312 28.671875 8.070312 28.128906 C 8.445312 28.671875 9.070312 29.03125 9.78125 29.03125 C 10.609375 29.027344 11.320312 28.539062 11.652344 27.832031 C 11.984375 28.535156 12.699219 29.023438 13.53125 29.023438 C 14.675781 29.023438 15.605469 28.089844 15.601562 26.9375 C 15.601562 26.902344 15.597656 26.871094 15.597656 26.835938 C 15.796875 26.902344 16.011719 26.9375 16.230469 26.9375 C 17.378906 26.933594 18.304688 26 18.304688 24.847656 C 18.304688 24.277344 18.074219 23.761719 17.703125 23.386719 C 18.074219 23.007812 18.300781 22.492188 18.300781 21.917969 "/>
</g>
<g clip-path="url(#clip2)" clip-rule="nonzero">
<path style=" stroke:none;fill-rule:nonzero;fill:rgb(72.938538%,85.488892%,90.19928%);fill-opacity:1;" d="M 15.097656 27.792969 C 14.4375 27.796875 13.871094 27.40625 13.609375 26.847656 C 13.347656 27.410156 12.78125 27.796875 12.125 27.796875 C 11.558594 27.800781 11.0625 27.515625 10.765625 27.082031 C 10.46875 27.515625 9.976562 27.800781 9.414062 27.800781 C 8.722656 27.804688 8.136719 27.378906 7.890625 26.777344 C 7.617188 26.976562 7.285156 27.097656 6.921875 27.097656 C 6.011719 27.097656 5.273438 26.359375 5.273438 25.445312 C 5.273438 24.582031 5.933594 23.875 6.773438 23.800781 C 6.585938 23.488281 6.476562 23.125 6.476562 22.734375 C 6.472656 21.597656 7.390625 20.675781 8.523438 20.671875 C 9.1875 20.671875 9.773438 20.988281 10.148438 21.480469 C 10.398438 20.625 11.183594 20 12.113281 20 C 12.65625 20 13.144531 20.210938 13.511719 20.554688 C 13.714844 19.875 14.34375 19.378906 15.085938 19.378906 C 15.148438 19.378906 15.214844 19.382812 15.277344 19.390625 C 14.910156 18.800781 14.257812 18.40625 13.515625 18.40625 C 12.578125 18.410156 11.789062 19.035156 11.53125 19.890625 C 11.070312 19.457031 10.449219 19.191406 9.765625 19.191406 C 8.59375 19.191406 7.605469 19.980469 7.289062 21.058594 C 6.816406 20.441406 6.074219 20.042969 5.238281 20.042969 C 3.808594 20.042969 2.65625 21.207031 2.65625 22.644531 C 2.65625 23.136719 2.796875 23.59375 3.03125 23.984375 C 1.972656 24.078125 1.140625 24.972656 1.140625 26.0625 C 1.144531 27.214844 2.074219 28.144531 3.21875 28.144531 C 3.675781 28.144531 4.097656 27.992188 4.441406 27.742188 C 4.75 28.5 5.492188 29.035156 6.359375 29.035156 C 7.070312 29.03125 7.695312 28.671875 8.070312 28.128906 C 8.445312 28.671875 9.070312 29.03125 9.78125 29.03125 C 10.609375 29.027344 11.320312 28.539062 11.652344 27.832031 C 11.984375 28.535156 12.699219 29.023438 13.53125 29.023438 C 14.386719 29.023438 15.117188 28.503906 15.433594 27.757812 C 15.324219 27.78125 15.210938 27.792969 15.097656 27.792969 "/>
</g>
<path style=" stroke:none;fill-rule:nonzero;fill:rgb(96.859741%,58.81958%,10.978699%);fill-opacity:1;" d="M 15.828125 12.53125 L 15.027344 11.375 L 15.023438 11.367188 L 14.222656 10.214844 C 14.222656 10.214844 9.578125 10.632812 9.253906 15.410156 L 9.246094 15.414062 L 9.253906 15.417969 L 9.25 15.421875 L 9.257812 15.417969 C 13.832031 16.761719 15.828125 12.53125 15.828125 12.53125 "/>
<path style=" stroke:none;fill-rule:nonzero;fill:rgb(98.039246%,74.119568%,9.01947%);fill-opacity:1;" d="M 15.574219 12.164062 L 15.019531 11.363281 L 15.015625 11.359375 L 14.457031 10.558594 C 14.457031 10.558594 11.234375 10.847656 11.007812 14.167969 L 11.003906 14.167969 L 11.007812 14.171875 L 11.007812 14.175781 L 11.011719 14.171875 C 14.1875 15.105469 15.574219 12.164062 15.574219 12.164062 "/>
<path style=" stroke:none;fill-rule:nonzero;fill:rgb(92.939758%,22.349548%,27.839661%);fill-opacity:1;" d="M 14.925781 8.84375 L 14.125 10 C 14.125 10 14.566406 11.6875 15.996094 12.695312 L 17.351562 12.339844 L 14.925781 8.84375 "/>
<g clip-path="url(#clip3)" clip-rule="nonzero">
<path style=" stroke:none;fill-rule:nonzero;fill:rgb(94.509888%,90.979004%,86.669922%);fill-opacity:1;" d="M 29.085938 3.082031 C 29.085938 3.082031 29.375 1.917969 29.097656 1.515625 C 28.816406 1.113281 27.628906 0.980469 27.628906 0.980469 C 27.628906 0.980469 21.03125 0.0546875 15.800781 6.808594 L 14.550781 8.617188 C 14.550781 8.617188 15.015625 11.378906 17.433594 12.773438 L 19.554688 12.21875 C 27.667969 9.621094 29.085938 3.082031 29.085938 3.082031 "/>
</g>
<path style=" stroke:none;fill-rule:nonzero;fill:rgb(86.669922%,82.348633%,64.709473%);fill-opacity:1;" d="M 18.328125 10.507812 L 18.046875 10.097656 L 18.625 9.71875 C 18.515625 9.976562 18.417969 10.238281 18.328125 10.507812 M 17.351562 9.097656 L 16.953125 8.523438 L 15.785156 6.839844 C 15.816406 6.792969 15.855469 6.742188 15.90625 6.679688 C 19.027344 2.714844 22.621094 1.457031 24.996094 1.082031 C 24.996094 1.097656 25.058594 1.832031 25.472656 2.746094 C 24.898438 3.078125 24.34375 3.4375 23.804688 3.820312 C 23.355469 3.546875 22.84375 3.402344 22.324219 3.402344 C 21.765625 3.402344 21.199219 3.570312 20.703125 3.917969 C 19.914062 4.472656 19.488281 5.355469 19.488281 6.257812 C 19.488281 6.738281 19.609375 7.21875 19.855469 7.660156 C 19.648438 7.945312 19.453125 8.242188 19.265625 8.542969 C 19.261719 8.53125 19.253906 8.523438 19.25 8.511719 C 19.121094 8.332031 18.921875 8.234375 18.71875 8.234375 C 18.589844 8.234375 18.460938 8.273438 18.347656 8.351562 L 17.351562 9.097656 M 14.550781 8.617188 L 15.683594 6.980469 L 14.550781 8.617188 "/>
<path style=" stroke:none;fill-rule:nonzero;fill:rgb(92.939758%,22.349548%,27.839661%);fill-opacity:1;" d="M 23.949219 8.597656 C 22.664062 9.496094 20.894531 9.179688 20 7.886719 C 19.101562 6.59375 19.417969 4.816406 20.703125 3.917969 C 21.988281 3.015625 23.757812 3.332031 24.65625 4.625 C 25.550781 5.917969 25.234375 7.695312 23.949219 8.597656 "/>
<path style=" stroke:none;fill-rule:nonzero;fill:rgb(70.588684%,67.059326%,64.309692%);fill-opacity:1;" d="M 22.328125 9.109375 C 21.433594 9.109375 20.550781 8.683594 20 7.886719 C 19.949219 7.8125 19.898438 7.738281 19.855469 7.660156 C 19.898438 7.738281 19.949219 7.8125 20 7.886719 C 20.550781 8.683594 21.433594 9.109375 22.328125 9.109375 C 22.820312 9.109375 23.3125 8.980469 23.761719 8.71875 C 23.3125 8.980469 22.820312 9.109375 22.328125 9.109375 "/>
<path style=" stroke:none;fill-rule:nonzero;fill:rgb(69.018555%,16.079712%,19.60907%);fill-opacity:1;" d="M 22.328125 9.109375 C 21.433594 9.109375 20.550781 8.683594 20 7.886719 C 19.949219 7.8125 19.898438 7.738281 19.855469 7.660156 C 19.609375 7.21875 19.488281 6.738281 19.488281 6.257812 C 19.488281 5.355469 19.914062 4.472656 20.703125 3.917969 C 21.199219 3.570312 21.765625 3.402344 22.324219 3.402344 C 22.957031 3.402344 23.582031 3.617188 24.085938 4.019531 C 23.804688 4.023438 23.527344 4.066406 23.257812 4.164062 C 22.964844 4.03125 22.644531 3.964844 22.324219 3.964844 C 21.875 3.964844 21.421875 4.097656 21.023438 4.375 C 19.988281 5.101562 19.738281 6.527344 20.457031 7.566406 C 20.898438 8.207031 21.609375 8.546875 22.328125 8.546875 C 22.605469 8.546875 22.878906 8.5 23.144531 8.394531 C 23.332031 8.527344 23.542969 8.640625 23.761719 8.71875 C 23.3125 8.980469 22.820312 9.109375 22.328125 9.109375 "/>
<path style=" stroke:none;fill-rule:nonzero;fill:rgb(69.018555%,16.079712%,19.60907%);fill-opacity:1;" d="M 23.144531 8.394531 C 23.085938 8.355469 23.03125 8.3125 22.976562 8.265625 C 22.96875 8.261719 22.964844 8.257812 22.957031 8.25 C 23.152344 8.1875 23.34375 8.097656 23.519531 7.972656 C 24.460938 7.3125 24.695312 6.007812 24.035156 5.058594 C 23.773438 4.679688 23.40625 4.414062 23 4.277344 C 23.085938 4.234375 23.171875 4.195312 23.257812 4.164062 C 23.625 4.328125 23.953125 4.589844 24.199219 4.945312 C 24.917969 5.984375 24.664062 7.414062 23.632812 8.136719 C 23.476562 8.242188 23.3125 8.332031 23.144531 8.394531 "/>
<path style=" stroke:none;fill-rule:nonzero;fill:rgb(52.549744%,11.759949%,14.118958%);fill-opacity:1;" d="M 22.328125 8.546875 C 21.609375 8.546875 20.898438 8.207031 20.457031 7.566406 C 19.738281 6.527344 19.988281 5.101562 21.023438 4.375 C 21.421875 4.097656 21.875 3.964844 22.324219 3.964844 C 22.644531 3.964844 22.964844 4.03125 23.257812 4.164062 C 23.171875 4.195312 23.085938 4.234375 23 4.277344 C 22.78125 4.203125 22.554688 4.164062 22.324219 4.164062 C 21.914062 4.164062 21.5 4.285156 21.136719 4.539062 C 20.554688 4.945312 20.246094 5.597656 20.246094 6.257812 C 20.246094 6.671875 20.367188 7.089844 20.617188 7.453125 C 20.621094 7.453125 20.621094 7.457031 20.621094 7.457031 C 20.648438 7.5 20.679688 7.539062 20.710938 7.578125 C 20.714844 7.578125 20.714844 7.582031 20.714844 7.582031 C 20.714844 7.582031 20.714844 7.582031 20.71875 7.582031 C 21.125 8.082031 21.722656 8.347656 22.328125 8.347656 C 22.539062 8.347656 22.753906 8.316406 22.957031 8.25 C 22.964844 8.257812 22.96875 8.261719 22.976562 8.265625 C 23.03125 8.3125 23.085938 8.355469 23.144531 8.394531 C 22.878906 8.5 22.605469 8.546875 22.328125 8.546875 "/>
<path style=" stroke:none;fill-rule:nonzero;fill:rgb(30.589294%,76.469421%,70.588684%);fill-opacity:1;" d="M 23.519531 7.972656 C 22.574219 8.632812 21.277344 8.402344 20.617188 7.453125 C 19.960938 6.503906 20.191406 5.199219 21.136719 4.539062 C 22.078125 3.878906 23.378906 4.113281 24.035156 5.058594 C 24.695312 6.007812 24.460938 7.3125 23.519531 7.972656 "/>
<g clip-path="url(#clip4)" clip-rule="nonzero">
<path style=" stroke:none;fill-rule:nonzero;fill:rgb(91.758728%,61.569214%,25.489807%);fill-opacity:1;" d="M 28.082031 5.527344 C 28.863281 4.117188 29.085938 3.082031 29.085938 3.082031 C 29.085938 3.082031 29.375 1.917969 29.097656 1.515625 C 28.816406 1.113281 27.628906 0.980469 27.628906 0.980469 C 27.628906 0.980469 26.585938 0.835938 24.996094 1.082031 C 24.996094 1.082031 25.222656 4.007812 28.082031 5.527344 "/>
</g>
<path style=" stroke:none;fill-rule:nonzero;fill:rgb(78.42865%,74.899292%,71.759033%);fill-opacity:1;" d="M 28.398438 4.910156 C 28.414062 4.882812 28.425781 4.855469 28.441406 4.828125 C 28.425781 4.855469 28.414062 4.882812 28.398438 4.910156 "/>
<path style=" stroke:none;fill-rule:nonzero;fill:rgb(82.749939%,82.348633%,82.348633%);fill-opacity:1;" d="M 28.359375 1.125 C 28.347656 1.121094 28.332031 1.117188 28.320312 1.113281 C 28.332031 1.117188 28.347656 1.121094 28.359375 1.121094 "/>
<path style=" stroke:none;fill-rule:nonzero;fill:rgb(75.689697%,50.19989%,20.779419%);fill-opacity:1;" d="M 28.34375 5.03125 C 28.34375 5.03125 28.34375 5.027344 28.34375 5.027344 C 28.34375 5.027344 26.113281 4.023438 25.511719 1.015625 C 25.347656 1.03125 25.175781 1.054688 24.996094 1.082031 C 25.726562 0.96875 26.339844 0.9375 26.792969 0.9375 C 27.324219 0.9375 27.628906 0.980469 27.628906 0.980469 C 27.632812 0.980469 27.964844 1.019531 28.320312 1.113281 C 28.332031 1.117188 28.347656 1.121094 28.359375 1.125 C 27.90625 1.386719 27.484375 1.761719 27.203125 2.203125 C 26.816406 2.8125 26.96875 3.664062 27.335938 4.242188 C 27.585938 4.636719 28.003906 4.800781 28.441406 4.828125 C 28.425781 4.855469 28.414062 4.882812 28.398438 4.910156 C 28.382812 4.953125 28.363281 4.992188 28.34375 5.03125 "/>
<path style=" stroke:none;fill-rule:nonzero;fill:rgb(48.629761%,10.978699%,12.939453%);fill-opacity:1;" d="M 20.71875 7.582031 C 20.714844 7.582031 20.714844 7.582031 20.714844 7.582031 C 20.714844 7.582031 20.714844 7.582031 20.71875 7.582031 M 20.714844 7.582031 C 20.714844 7.582031 20.714844 7.578125 20.710938 7.578125 C 20.714844 7.578125 20.714844 7.582031 20.714844 7.582031 M 20.710938 7.578125 C 20.679688 7.539062 20.648438 7.5 20.621094 7.457031 C 20.648438 7.5 20.679688 7.539062 20.710938 7.578125 M 20.621094 7.457031 C 20.621094 7.457031 20.621094 7.453125 20.617188 7.453125 C 20.367188 7.089844 20.246094 6.671875 20.246094 6.257812 C 20.246094 6.671875 20.367188 7.089844 20.617188 7.453125 C 20.621094 7.453125 20.621094 7.457031 20.621094 7.457031 "/>
<path style=" stroke:none;fill-rule:nonzero;fill:rgb(28.239441%,69.799805%,64.309692%);fill-opacity:1;" d="M 21.730469 8.261719 C 21.34375 8.144531 20.988281 7.917969 20.71875 7.582031 C 20.714844 7.582031 20.714844 7.582031 20.714844 7.582031 C 20.714844 7.582031 20.714844 7.578125 20.710938 7.578125 C 20.679688 7.539062 20.648438 7.5 20.621094 7.457031 C 20.621094 7.457031 20.621094 7.453125 20.617188 7.453125 C 20.367188 7.089844 20.246094 6.671875 20.246094 6.257812 C 20.246094 5.597656 20.554688 4.945312 21.136719 4.539062 C 21.5 4.285156 21.914062 4.164062 22.324219 4.164062 C 22.746094 4.164062 23.160156 4.292969 23.511719 4.535156 C 23.328125 4.65625 23.152344 4.789062 22.988281 4.933594 C 22.941406 4.980469 22.894531 5.023438 22.84375 5.070312 C 22.824219 5.066406 22.800781 5.066406 22.777344 5.066406 C 22.523438 5.066406 22.269531 5.140625 22.042969 5.300781 C 21.476562 5.695312 21.324219 6.46875 21.691406 7.050781 C 21.617188 7.457031 21.636719 7.867188 21.730469 8.261719 M 21.441406 4.832031 C 21.378906 4.832031 21.316406 4.851562 21.257812 4.890625 C 21.113281 4.992188 21.078125 5.195312 21.179688 5.34375 C 21.242188 5.433594 21.339844 5.480469 21.441406 5.480469 C 21.507812 5.480469 21.570312 5.460938 21.625 5.421875 C 21.773438 5.320312 21.808594 5.117188 21.707031 4.972656 C 21.644531 4.882812 21.542969 4.832031 21.441406 4.832031 "/>
<path style=" stroke:none;fill-rule:nonzero;fill:rgb(51.368713%,83.529663%,77.249146%);fill-opacity:1;" d="M 22.78125 7.652344 C 22.375 7.652344 21.972656 7.460938 21.722656 7.097656 C 21.710938 7.082031 21.703125 7.066406 21.691406 7.050781 C 21.703125 6.992188 21.714844 6.929688 21.730469 6.871094 C 21.914062 6.152344 22.320312 5.570312 22.84375 5.070312 C 23.226562 5.089844 23.597656 5.28125 23.835938 5.621094 C 24.242188 6.207031 24.097656 7.011719 23.515625 7.421875 C 23.289062 7.578125 23.035156 7.652344 22.78125 7.652344 "/>
<path style=" stroke:none;fill-rule:nonzero;fill:rgb(48.239136%,78.42865%,72.938538%);fill-opacity:1;" d="M 21.691406 7.050781 C 21.324219 6.46875 21.476562 5.695312 22.042969 5.300781 C 22.269531 5.140625 22.523438 5.066406 22.777344 5.066406 C 22.800781 5.066406 22.824219 5.066406 22.84375 5.070312 C 22.320312 5.570312 21.914062 6.152344 21.730469 6.871094 C 21.714844 6.929688 21.703125 6.992188 21.691406 7.050781 "/>
<path style=" stroke:none;fill-rule:nonzero;fill:rgb(48.239136%,78.42865%,72.938538%);fill-opacity:1;" d="M 21.441406 5.480469 C 21.339844 5.480469 21.242188 5.433594 21.179688 5.34375 C 21.078125 5.195312 21.113281 4.992188 21.257812 4.890625 C 21.316406 4.851562 21.378906 4.832031 21.441406 4.832031 C 21.542969 4.832031 21.644531 4.882812 21.707031 4.972656 C 21.808594 5.117188 21.773438 5.320312 21.625 5.421875 C 21.570312 5.460938 21.507812 5.480469 21.441406 5.480469 "/>
<path style=" stroke:none;fill-rule:nonzero;fill:rgb(78.039551%,15.289307%,22.749329%);fill-opacity:1;" d="M 25.511719 1.015625 C 25.347656 1.03125 25.175781 1.054688 24.996094 1.082031 C 24.996094 1.082031 25.222656 4.007812 28.082031 5.527344 C 28.195312 5.320312 28.25 5.21875 28.34375 5.027344 C 28.34375 5.027344 26.113281 4.023438 25.511719 1.015625 "/>
<path style=" stroke:none;fill-rule:nonzero;fill:rgb(65.098572%,12.548828%,18.429565%);fill-opacity:1;" d="M 25.320312 1.578125 C 25.269531 1.578125 25.21875 1.554688 25.1875 1.507812 C 25.132812 1.433594 25.152344 1.328125 25.226562 1.277344 C 25.253906 1.257812 25.289062 1.246094 25.320312 1.246094 C 25.375 1.246094 25.425781 1.273438 25.457031 1.316406 C 25.507812 1.394531 25.492188 1.496094 25.414062 1.546875 C 25.386719 1.570312 25.355469 1.578125 25.320312 1.578125 "/>
<path style=" stroke:none;fill-rule:nonzero;fill:rgb(82.749939%,82.348633%,82.348633%);fill-opacity:1;" d="M 25.40625 1.535156 C 25.339844 1.585938 25.246094 1.566406 25.199219 1.5 C 25.148438 1.429688 25.167969 1.335938 25.234375 1.289062 C 25.304688 1.242188 25.398438 1.257812 25.445312 1.324219 C 25.492188 1.394531 25.476562 1.488281 25.40625 1.535156 "/>
<path style=" stroke:none;fill-rule:nonzero;fill:rgb(91.369629%,91.369629%,91.369629%);fill-opacity:1;" d="M 25.289062 1.523438 C 25.238281 1.425781 25.28125 1.3125 25.375 1.269531 C 25.328125 1.253906 25.277344 1.257812 25.234375 1.289062 C 25.167969 1.335938 25.148438 1.429688 25.199219 1.5 C 25.226562 1.539062 25.269531 1.5625 25.316406 1.5625 C 25.304688 1.550781 25.296875 1.539062 25.289062 1.523438 "/>
<path style=" stroke:none;fill-rule:nonzero;fill:rgb(64.709473%,63.919067%,64.309692%);fill-opacity:1;" d="M 25.378906 1.496094 C 25.332031 1.527344 25.269531 1.515625 25.238281 1.472656 C 25.207031 1.425781 25.21875 1.359375 25.261719 1.328125 C 25.308594 1.296875 25.371094 1.308594 25.40625 1.355469 C 25.4375 1.398438 25.425781 1.464844 25.378906 1.496094 "/>
<path style=" stroke:none;fill-rule:nonzero;fill:rgb(74.119568%,73.728943%,73.728943%);fill-opacity:1;" d="M 25.375 1.488281 C 25.332031 1.519531 25.273438 1.507812 25.246094 1.46875 C 25.214844 1.421875 25.226562 1.363281 25.269531 1.335938 C 25.308594 1.304688 25.367188 1.316406 25.398438 1.359375 C 25.429688 1.402344 25.417969 1.460938 25.375 1.488281 "/>
<path style=" stroke:none;fill-rule:nonzero;fill:rgb(64.709473%,63.919067%,64.309692%);fill-opacity:1;" d="M 25.277344 1.460938 L 25.257812 1.457031 L 25.261719 1.4375 L 25.363281 1.363281 L 25.386719 1.367188 L 25.382812 1.386719 L 25.277344 1.460938 "/>
<path style=" stroke:none;fill-rule:nonzero;fill:rgb(64.709473%,63.919067%,64.309692%);fill-opacity:1;" d="M 25.273438 1.367188 L 25.277344 1.347656 L 25.296875 1.351562 L 25.371094 1.457031 L 25.367188 1.476562 L 25.34375 1.472656 L 25.273438 1.367188 "/>
<path style=" stroke:none;fill-rule:nonzero;fill:rgb(65.098572%,12.548828%,18.429565%);fill-opacity:1;" d="M 25.546875 2.304688 C 25.496094 2.304688 25.445312 2.28125 25.410156 2.234375 C 25.359375 2.160156 25.378906 2.054688 25.453125 2.003906 C 25.480469 1.980469 25.515625 1.972656 25.546875 1.972656 C 25.597656 1.972656 25.652344 1.996094 25.683594 2.042969 C 25.734375 2.117188 25.714844 2.222656 25.640625 2.273438 C 25.613281 2.292969 25.578125 2.304688 25.546875 2.304688 "/>
<path style=" stroke:none;fill-rule:nonzero;fill:rgb(82.749939%,82.348633%,82.348633%);fill-opacity:1;" d="M 25.632812 2.261719 C 25.566406 2.308594 25.472656 2.292969 25.425781 2.226562 C 25.375 2.15625 25.394531 2.0625 25.460938 2.015625 C 25.53125 1.964844 25.625 1.984375 25.671875 2.050781 C 25.71875 2.121094 25.703125 2.214844 25.632812 2.261719 "/>
<path style=" stroke:none;fill-rule:nonzero;fill:rgb(91.369629%,91.369629%,91.369629%);fill-opacity:1;" d="M 25.515625 2.25 C 25.464844 2.152344 25.507812 2.039062 25.601562 1.996094 C 25.554688 1.980469 25.503906 1.984375 25.460938 2.015625 C 25.394531 2.0625 25.375 2.15625 25.425781 2.226562 C 25.453125 2.265625 25.496094 2.289062 25.542969 2.289062 C 25.53125 2.277344 25.523438 2.265625 25.515625 2.25 "/>
<path style=" stroke:none;fill-rule:nonzero;fill:rgb(64.709473%,63.919067%,64.309692%);fill-opacity:1;" d="M 25.605469 2.222656 C 25.558594 2.253906 25.496094 2.242188 25.464844 2.195312 C 25.433594 2.152344 25.441406 2.085938 25.488281 2.054688 C 25.535156 2.023438 25.597656 2.035156 25.632812 2.082031 C 25.664062 2.125 25.652344 2.191406 25.605469 2.222656 "/>
<path style=" stroke:none;fill-rule:nonzero;fill:rgb(74.119568%,73.728943%,73.728943%);fill-opacity:1;" d="M 25.601562 2.214844 C 25.558594 2.246094 25.5 2.234375 25.46875 2.191406 C 25.441406 2.148438 25.453125 2.089844 25.492188 2.0625 C 25.535156 2.03125 25.59375 2.042969 25.625 2.085938 C 25.65625 2.128906 25.644531 2.1875 25.601562 2.214844 "/>
<path style=" stroke:none;fill-rule:nonzero;fill:rgb(64.709473%,63.919067%,64.309692%);fill-opacity:1;" d="M 25.503906 2.1875 L 25.484375 2.183594 L 25.488281 2.164062 L 25.589844 2.089844 L 25.613281 2.09375 L 25.609375 2.113281 L 25.503906 2.1875 "/>
<path style=" stroke:none;fill-rule:nonzero;fill:rgb(64.709473%,63.919067%,64.309692%);fill-opacity:1;" d="M 25.5 2.09375 L 25.503906 2.074219 L 25.523438 2.078125 L 25.597656 2.183594 L 25.59375 2.203125 L 25.570312 2.199219 L 25.5 2.09375 "/>
<path style=" stroke:none;fill-rule:nonzero;fill:rgb(65.098572%,12.548828%,18.429565%);fill-opacity:1;" d="M 25.914062 3.121094 C 25.863281 3.121094 25.808594 3.097656 25.777344 3.050781 C 25.726562 2.976562 25.742188 2.871094 25.820312 2.820312 C 25.847656 2.800781 25.878906 2.789062 25.914062 2.789062 C 25.964844 2.789062 26.015625 2.8125 26.046875 2.859375 C 26.101562 2.933594 26.082031 3.039062 26.007812 3.089844 C 25.980469 3.113281 25.945312 3.121094 25.914062 3.121094 "/>
<path style=" stroke:none;fill-rule:nonzero;fill:rgb(82.749939%,82.348633%,82.348633%);fill-opacity:1;" d="M 26 3.078125 C 25.929688 3.128906 25.835938 3.109375 25.789062 3.042969 C 25.742188 2.972656 25.757812 2.878906 25.828125 2.832031 C 25.894531 2.78125 25.988281 2.800781 26.035156 2.867188 C 26.085938 2.9375 26.066406 3.03125 26 3.078125 "/>
<path style=" stroke:none;fill-rule:nonzero;fill:rgb(91.369629%,91.369629%,91.369629%);fill-opacity:1;" d="M 25.882812 3.066406 C 25.832031 2.96875 25.875 2.855469 25.964844 2.8125 C 25.921875 2.796875 25.871094 2.800781 25.828125 2.832031 C 25.757812 2.878906 25.742188 2.972656 25.789062 3.042969 C 25.816406 3.082031 25.863281 3.105469 25.90625 3.105469 C 25.898438 3.09375 25.890625 3.082031 25.882812 3.066406 "/>
<path style=" stroke:none;fill-rule:nonzero;fill:rgb(64.709473%,63.919067%,64.309692%);fill-opacity:1;" d="M 25.972656 3.039062 C 25.925781 3.070312 25.863281 3.058594 25.832031 3.015625 C 25.796875 2.96875 25.808594 2.902344 25.855469 2.871094 C 25.902344 2.839844 25.964844 2.851562 25.996094 2.898438 C 26.027344 2.941406 26.015625 3.007812 25.972656 3.039062 "/>
<path style=" stroke:none;fill-rule:nonzero;fill:rgb(74.119568%,73.728943%,73.728943%);fill-opacity:1;" d="M 25.96875 3.03125 C 25.925781 3.0625 25.867188 3.050781 25.835938 3.007812 C 25.804688 2.964844 25.816406 2.90625 25.859375 2.878906 C 25.902344 2.847656 25.960938 2.859375 25.992188 2.902344 C 26.019531 2.945312 26.007812 3.003906 25.96875 3.03125 "/>
<path style=" stroke:none;fill-rule:nonzero;fill:rgb(64.709473%,63.919067%,64.309692%);fill-opacity:1;" d="M 25.871094 3.003906 L 25.847656 3 L 25.851562 2.980469 L 25.957031 2.90625 L 25.976562 2.910156 L 25.972656 2.929688 L 25.871094 3.003906 "/>
<path style=" stroke:none;fill-rule:nonzero;fill:rgb(64.709473%,63.919067%,64.309692%);fill-opacity:1;" d="M 25.863281 2.910156 L 25.867188 2.890625 L 25.890625 2.894531 L 25.960938 3 L 25.957031 3.019531 L 25.9375 3.015625 L 25.863281 2.910156 "/>
<path style=" stroke:none;fill-rule:nonzero;fill:rgb(65.098572%,12.548828%,18.429565%);fill-opacity:1;" d="M 26.433594 3.925781 C 26.382812 3.925781 26.332031 3.902344 26.300781 3.855469 C 26.25 3.78125 26.265625 3.675781 26.339844 3.625 C 26.371094 3.605469 26.402344 3.59375 26.433594 3.59375 C 26.488281 3.59375 26.539062 3.621094 26.570312 3.664062 C 26.621094 3.742188 26.605469 3.84375 26.53125 3.898438 C 26.5 3.917969 26.46875 3.925781 26.433594 3.925781 "/>
<path style=" stroke:none;fill-rule:nonzero;fill:rgb(82.749939%,82.348633%,82.348633%);fill-opacity:1;" d="M 26.519531 3.882812 C 26.453125 3.933594 26.359375 3.917969 26.3125 3.847656 C 26.265625 3.777344 26.28125 3.683594 26.347656 3.636719 C 26.417969 3.589844 26.511719 3.605469 26.558594 3.675781 C 26.605469 3.742188 26.589844 3.835938 26.519531 3.882812 "/>
<path style=" stroke:none;fill-rule:nonzero;fill:rgb(91.369629%,91.369629%,91.369629%);fill-opacity:1;" d="M 26.402344 3.871094 C 26.351562 3.773438 26.398438 3.664062 26.488281 3.617188 C 26.441406 3.601562 26.390625 3.605469 26.347656 3.636719 C 26.28125 3.683594 26.265625 3.777344 26.3125 3.847656 C 26.339844 3.886719 26.382812 3.910156 26.429688 3.910156 C 26.417969 3.898438 26.410156 3.886719 26.402344 3.871094 "/>
<path style=" stroke:none;fill-rule:nonzero;fill:rgb(64.709473%,63.919067%,64.309692%);fill-opacity:1;" d="M 26.492188 3.84375 C 26.449219 3.878906 26.382812 3.867188 26.351562 3.820312 C 26.320312 3.773438 26.332031 3.710938 26.378906 3.675781 C 26.421875 3.644531 26.488281 3.65625 26.519531 3.703125 C 26.550781 3.75 26.539062 3.8125 26.492188 3.84375 "/>
<path style=" stroke:none;fill-rule:nonzero;fill:rgb(74.119568%,73.728943%,73.728943%);fill-opacity:1;" d="M 26.488281 3.839844 C 26.445312 3.867188 26.386719 3.859375 26.359375 3.816406 C 26.328125 3.773438 26.339844 3.710938 26.382812 3.683594 C 26.425781 3.652344 26.484375 3.664062 26.511719 3.707031 C 26.542969 3.75 26.53125 3.808594 26.488281 3.839844 "/>
<path style=" stroke:none;fill-rule:nonzero;fill:rgb(64.709473%,63.919067%,64.309692%);fill-opacity:1;" d="M 26.390625 3.808594 C 26.386719 3.8125 26.375 3.8125 26.371094 3.804688 L 26.375 3.785156 L 26.476562 3.710938 L 26.5 3.714844 L 26.496094 3.738281 L 26.390625 3.808594 "/>
<path style=" stroke:none;fill-rule:nonzero;fill:rgb(64.709473%,63.919067%,64.309692%);fill-opacity:1;" d="M 26.386719 3.71875 L 26.390625 3.695312 L 26.410156 3.699219 L 26.484375 3.804688 L 26.480469 3.824219 L 26.457031 3.820312 L 26.386719 3.71875 "/>
<path style=" stroke:none;fill-rule:nonzero;fill:rgb(65.098572%,12.548828%,18.429565%);fill-opacity:1;" d="M 27.085938 4.65625 C 27.035156 4.65625 26.980469 4.632812 26.949219 4.585938 C 26.898438 4.511719 26.917969 4.410156 26.992188 4.355469 C 27.019531 4.335938 27.054688 4.328125 27.085938 4.328125 C 27.136719 4.328125 27.1875 4.351562 27.21875 4.398438 C 27.273438 4.472656 27.253906 4.574219 27.179688 4.628906 C 27.152344 4.648438 27.117188 4.65625 27.085938 4.65625 "/>
<path style=" stroke:none;fill-rule:nonzero;fill:rgb(82.749939%,82.348633%,82.348633%);fill-opacity:1;" d="M 27.171875 4.617188 C 27.101562 4.664062 27.007812 4.648438 26.960938 4.578125 C 26.914062 4.511719 26.929688 4.414062 27 4.367188 C 27.066406 4.320312 27.160156 4.335938 27.207031 4.40625 C 27.257812 4.472656 27.238281 4.566406 27.171875 4.617188 "/>
<path style=" stroke:none;fill-rule:nonzero;fill:rgb(91.369629%,91.369629%,91.369629%);fill-opacity:1;" d="M 27.054688 4.605469 C 27.003906 4.503906 27.046875 4.394531 27.136719 4.351562 C 27.09375 4.332031 27.042969 4.339844 27 4.367188 C 26.929688 4.414062 26.914062 4.511719 26.960938 4.578125 C 26.988281 4.621094 27.035156 4.640625 27.078125 4.644531 C 27.070312 4.632812 27.0625 4.617188 27.054688 4.605469 "/>
<path style=" stroke:none;fill-rule:nonzero;fill:rgb(64.709473%,63.919067%,64.309692%);fill-opacity:1;" d="M 27.144531 4.574219 C 27.097656 4.609375 27.035156 4.597656 27 4.550781 C 26.96875 4.503906 26.980469 4.441406 27.027344 4.40625 C 27.074219 4.375 27.136719 4.386719 27.167969 4.433594 C 27.199219 4.480469 27.191406 4.542969 27.144531 4.574219 "/>
<path style=" stroke:none;fill-rule:nonzero;fill:rgb(74.119568%,73.728943%,73.728943%);fill-opacity:1;" d="M 27.140625 4.570312 C 27.097656 4.601562 27.039062 4.589844 27.007812 4.546875 C 26.976562 4.503906 26.988281 4.445312 27.03125 4.414062 C 27.074219 4.382812 27.132812 4.394531 27.164062 4.4375 C 27.191406 4.480469 27.183594 4.539062 27.140625 4.570312 "/>
<path style=" stroke:none;fill-rule:nonzero;fill:rgb(64.709473%,63.919067%,64.309692%);fill-opacity:1;" d="M 27.042969 4.539062 L 27.019531 4.535156 L 27.023438 4.515625 L 27.128906 4.445312 L 27.148438 4.445312 L 27.144531 4.46875 L 27.042969 4.539062 "/>
<path style=" stroke:none;fill-rule:nonzero;fill:rgb(64.709473%,63.919067%,64.309692%);fill-opacity:1;" d="M 27.035156 4.449219 L 27.039062 4.425781 L 27.0625 4.429688 L 27.132812 4.535156 L 27.128906 4.554688 L 27.109375 4.554688 L 27.035156 4.449219 "/>
<path style=" stroke:none;fill-rule:nonzero;fill:rgb(65.098572%,12.548828%,18.429565%);fill-opacity:1;" d="M 27.839844 5.242188 C 27.789062 5.242188 27.738281 5.214844 27.707031 5.167969 C 27.652344 5.09375 27.671875 4.992188 27.746094 4.9375 C 27.777344 4.917969 27.808594 4.910156 27.839844 4.910156 C 27.894531 4.910156 27.945312 4.933594 27.976562 4.980469 C 28.03125 5.054688 28.011719 5.15625 27.9375 5.210938 C 27.90625 5.230469 27.875 5.242188 27.839844 5.242188 "/>
<path style=" stroke:none;fill-rule:nonzero;fill:rgb(82.749939%,82.348633%,82.348633%);fill-opacity:1;" d="M 27.929688 5.199219 C 27.859375 5.246094 27.765625 5.230469 27.71875 5.160156 C 27.671875 5.09375 27.6875 5 27.753906 4.949219 C 27.824219 4.902344 27.917969 4.917969 27.964844 4.988281 C 28.011719 5.054688 27.996094 5.152344 27.929688 5.199219 "/>
<path style=" stroke:none;fill-rule:nonzero;fill:rgb(91.369629%,91.369629%,91.369629%);fill-opacity:1;" d="M 27.808594 5.1875 C 27.757812 5.089844 27.804688 4.976562 27.894531 4.933594 C 27.847656 4.917969 27.796875 4.921875 27.753906 4.949219 C 27.6875 5 27.671875 5.09375 27.71875 5.160156 C 27.746094 5.203125 27.789062 5.222656 27.835938 5.226562 C 27.824219 5.214844 27.816406 5.199219 27.808594 5.1875 "/>
<path style=" stroke:none;fill-rule:nonzero;fill:rgb(64.709473%,63.919067%,64.309692%);fill-opacity:1;" d="M 27.898438 5.15625 C 27.855469 5.191406 27.789062 5.179688 27.757812 5.132812 C 27.726562 5.085938 27.738281 5.023438 27.785156 4.992188 C 27.828125 4.957031 27.894531 4.96875 27.925781 5.015625 C 27.957031 5.0625 27.945312 5.125 27.898438 5.15625 "/>
<path style=" stroke:none;fill-rule:nonzero;fill:rgb(74.119568%,73.728943%,73.728943%);fill-opacity:1;" d="M 27.894531 5.152344 C 27.851562 5.183594 27.792969 5.171875 27.765625 5.128906 C 27.734375 5.085938 27.746094 5.027344 27.789062 4.996094 C 27.832031 4.96875 27.890625 4.976562 27.917969 5.019531 C 27.949219 5.0625 27.9375 5.121094 27.894531 5.152344 "/>
<path style=" stroke:none;fill-rule:nonzero;fill:rgb(64.709473%,63.919067%,64.309692%);fill-opacity:1;" d="M 27.796875 5.125 L 27.777344 5.121094 L 27.78125 5.097656 L 27.882812 5.027344 C 27.890625 5.019531 27.902344 5.023438 27.90625 5.03125 L 27.902344 5.050781 L 27.796875 5.125 "/>
<path style=" stroke:none;fill-rule:nonzero;fill:rgb(64.709473%,63.919067%,64.309692%);fill-opacity:1;" d="M 27.792969 5.03125 L 27.796875 5.007812 L 27.816406 5.015625 L 27.890625 5.117188 L 27.886719 5.140625 L 27.867188 5.136719 L 27.792969 5.03125 "/>
<path style=" stroke:none;fill-rule:nonzero;fill:rgb(9.408569%,21.179199%,31.759644%);fill-opacity:1;" d="M 15.78125 6.835938 L 14.550781 8.617188 C 14.550781 8.617188 15.015625 11.378906 17.433594 12.773438 L 19.523438 12.226562 L 15.78125 6.835938 "/>
<path style=" stroke:none;fill-rule:nonzero;fill:rgb(84.709167%,16.079712%,18.818665%);fill-opacity:1;" d="M 19.214844 3.484375 C 19.214844 3.484375 13.117188 0.00390625 8.726562 7.566406 C 8.726562 7.566406 13.242188 4.707031 15.683594 6.980469 C 15.683594 6.980469 17 5.035156 19.214844 3.484375 "/>
<path style=" stroke:none;fill-rule:nonzero;fill:rgb(65.489197%,64.709473%,65.098572%);fill-opacity:1;" d="M 8.71875 7.574219 C 8.777344 7.472656 8.835938 7.375 8.894531 7.28125 C 8.898438 7.277344 8.902344 7.269531 8.90625 7.265625 C 8.847656 7.367188 8.789062 7.464844 8.726562 7.566406 C 8.726562 7.566406 11.039062 6.101562 13.25 6.101562 C 14.125 6.101562 14.988281 6.332031 15.679688 6.976562 C 15.675781 6.984375 15.675781 6.984375 15.675781 6.984375 C 14.980469 6.339844 14.121094 6.109375 13.242188 6.109375 C 11.03125 6.109375 8.71875 7.574219 8.71875 7.574219 "/>
<path style=" stroke:none;fill-rule:nonzero;fill:rgb(55.288696%,9.799194%,11.369324%);fill-opacity:1;" d="M 8.726562 7.566406 C 8.789062 7.464844 8.847656 7.367188 8.90625 7.265625 C 9.777344 6.425781 11.558594 5.003906 13.671875 5.003906 C 14.570312 5.003906 15.53125 5.261719 16.507812 5.933594 C 16.011719 6.503906 15.726562 6.914062 15.679688 6.976562 C 14.988281 6.332031 14.125 6.101562 13.25 6.101562 C 11.039062 6.101562 8.726562 7.566406 8.726562 7.566406 "/>
<path style=" stroke:none;fill-rule:nonzero;fill:rgb(93.328857%,13.729858%,22.749329%);fill-opacity:1;" d="M 10.871094 5.453125 C 11.558594 4.925781 12.289062 4.457031 13.105469 4.15625 C 13.851562 3.882812 14.65625 3.726562 15.453125 3.726562 C 16.300781 3.722656 17.125 3.859375 17.929688 4.128906 C 18.03125 4.164062 18.132812 4.199219 18.234375 4.238281 C 18.535156 3.984375 18.863281 3.726562 19.214844 3.484375 C 19.214844 3.484375 13.175781 0.0351562 8.789062 7.464844 C 9.378906 6.699219 10.109375 6.039062 10.871094 5.453125 "/>
<path style=" stroke:none;fill-rule:nonzero;fill:rgb(84.709167%,16.079712%,18.818665%);fill-opacity:1;" d="M 23.839844 10.148438 C 23.839844 10.148438 24.980469 17.097656 16.398438 18.621094 C 16.398438 18.621094 20.628906 15.355469 19.351562 12.265625 C 19.351562 12.265625 21.625 11.699219 23.839844 10.148438 "/>
<path style=" stroke:none;fill-rule:nonzero;fill:rgb(65.489197%,64.709473%,65.098572%);fill-opacity:1;" d="M 16.386719 18.628906 C 16.386719 18.628906 20.621094 15.359375 19.34375 12.273438 L 19.355469 12.269531 C 20.628906 15.355469 16.398438 18.621094 16.398438 18.621094 C 16.511719 18.601562 16.625 18.578125 16.738281 18.558594 C 16.734375 18.558594 16.730469 18.5625 16.722656 18.5625 C 16.613281 18.585938 16.503906 18.605469 16.386719 18.628906 "/>
<path style=" stroke:none;fill-rule:nonzero;fill:rgb(5.488586%,13.729858%,20.388794%);fill-opacity:1;" d="M 19.34375 12.273438 C 19.34375 12.273438 19.347656 12.269531 19.355469 12.269531 L 19.34375 12.273438 "/>
<path style=" stroke:none;fill-rule:nonzero;fill:rgb(55.288696%,9.799194%,11.369324%);fill-opacity:1;" d="M 16.398438 18.621094 C 16.398438 18.621094 20.628906 15.355469 19.355469 12.269531 C 19.429688 12.25 19.910156 12.121094 20.613281 11.851562 C 21.585938 15.707031 18.289062 17.800781 16.738281 18.558594 C 16.625 18.578125 16.511719 18.601562 16.398438 18.621094 "/>
<path style=" stroke:none;fill-rule:nonzero;fill:rgb(93.328857%,13.729858%,22.749329%);fill-opacity:1;" d="M 19.113281 17.332031 C 19.84375 16.867188 20.535156 16.339844 21.097656 15.671875 C 21.609375 15.0625 22.035156 14.359375 22.3125 13.609375 C 22.605469 12.808594 22.765625 11.988281 22.789062 11.132812 C 22.792969 11.027344 22.796875 10.917969 22.792969 10.808594 C 23.136719 10.613281 23.488281 10.390625 23.839844 10.148438 C 23.839844 10.148438 24.96875 17.03125 16.515625 18.597656 C 17.433594 18.308594 18.304688 17.847656 19.113281 17.332031 "/>
<path style=" stroke:none;fill-rule:nonzero;fill:rgb(69.018555%,16.079712%,19.60907%);fill-opacity:1;" d="M 16.59375 12.175781 C 16.574219 12.160156 16.558594 12.144531 16.542969 12.128906 C 16.558594 12.144531 16.574219 12.160156 16.59375 12.175781 M 16.542969 12.128906 C 16.542969 12.128906 16.542969 12.128906 16.539062 12.128906 C 16.542969 12.128906 16.542969 12.128906 16.542969 12.128906 "/>
<path style=" stroke:none;fill-rule:nonzero;fill:rgb(6.669617%,15.689087%,23.139954%);fill-opacity:1;" d="M 16.59375 12.175781 C 16.574219 12.160156 16.558594 12.144531 16.542969 12.128906 C 16.542969 12.128906 16.542969 12.128906 16.539062 12.128906 C 16.308594 11.925781 16.105469 11.707031 15.921875 11.488281 L 16.324219 11.222656 C 16.375 11.550781 16.460938 11.875 16.59375 12.175781 "/>
<path style=" stroke:none;fill-rule:nonzero;fill:rgb(64.709473%,61.178589%,48.239136%);fill-opacity:1;" d="M 16.953125 8.523438 L 15.785156 6.839844 L 16.953125 8.523438 "/>
<path style=" stroke:none;fill-rule:nonzero;fill:rgb(6.669617%,15.689087%,23.139954%);fill-opacity:1;" d="M 15.320312 10.617188 C 14.710938 9.558594 14.550781 8.625 14.550781 8.617188 L 15.683594 6.980469 C 15.683594 6.980469 15.71875 6.929688 15.785156 6.839844 L 16.953125 8.523438 C 16.683594 8.925781 16.46875 9.363281 16.363281 9.835938 L 15.320312 10.617188 "/>
<path style=" stroke:none;fill-rule:nonzero;fill:rgb(62.748718%,11.369324%,13.328552%);fill-opacity:1;" d="M 15.683594 6.980469 L 15.78125 6.835938 L 15.785156 6.839844 C 15.71875 6.929688 15.683594 6.980469 15.683594 6.980469 "/>
<path style=" stroke:none;fill-rule:nonzero;fill:rgb(9.01947%,35.688782%,45.489502%);fill-opacity:1;" d="M 14.421875 12.46875 L 19.085938 9.417969 C 19.378906 9.210938 19.453125 8.808594 19.25 8.511719 C 19.042969 8.21875 18.640625 8.144531 18.347656 8.351562 L 13.882812 11.691406 C 13.882812 11.691406 13.445312 12.050781 13.738281 12.375 C 13.738281 12.375 13.960938 12.703125 14.421875 12.46875 "/>
<path style=" stroke:none;fill-rule:nonzero;fill:rgb(5.488586%,22.749329%,29.019165%);fill-opacity:1;" d="M 14.109375 12.554688 C 13.859375 12.550781 13.738281 12.375 13.738281 12.375 L 13.726562 12.359375 L 19.238281 8.5 L 19.25 8.511719 C 19.328125 8.625 19.363281 8.753906 19.363281 8.882812 C 19.363281 9.089844 19.265625 9.292969 19.085938 9.417969 L 16.324219 11.222656 L 15.921875 11.488281 L 15.195312 11.964844 L 14.421875 12.46875 C 14.300781 12.53125 14.195312 12.554688 14.109375 12.554688 "/>
</g>
</svg>
